<svg width="1928" height="396" viewBox="0 0 1928 396" fill="none" xmlns="http://www.w3.org/2000/svg">
<rect width="1928" height="396" fill="#F2EFE6"/>
<path d="M1108.65 166.206C1108.38 167.816 1110.27 168.86 1111.5 167.776C1118.5 161.506 1131.73 159.079 1137.58 158.772C1143.43 158.464 1151.28 158.472 1151.28 158.472C1153.6 158.472 1155.5 160.357 1155.5 162.687V170.106C1155.5 171.497 1156.63 172.629 1158.02 172.629H1167.08C1168.47 172.629 1169.6 171.497 1169.6 170.106V160.156C1169.6 159.233 1170.36 158.472 1171.29 158.472H1182.06C1182.99 158.472 1183.75 159.233 1183.75 160.156L1183.76 160.163V170.947C1183.76 171.869 1183.01 172.629 1182.08 172.629H1172.14C1170.75 172.629 1169.62 173.762 1169.62 175.154V184.279C1169.62 185.67 1170.75 186.803 1172.14 186.803H1179.55C1181.88 186.803 1183.76 188.688 1183.76 191.018V213.054C1183.76 215.384 1181.88 217.269 1179.55 217.269H1172.14C1170.75 217.269 1169.62 218.401 1169.62 219.792V227.259C1169.62 229.581 1167.74 231.474 1165.41 231.474H1158.03C1156.64 231.474 1155.5 232.607 1155.5 233.998V241.352C1155.5 243.682 1153.62 245.567 1151.29 245.567C1151.28 245.567 1144.98 245.849 1137.63 245.405C1126.24 244.709 1117.51 241.133 1109.98 235.268V276.939H1094.81V158.464H1109.98L1108.65 166.206ZM1044.4 157.971C1068.99 157.979 1085.36 174.182 1085.36 199.447C1085.36 201.639 1085.27 203.864 1084.95 206.121H1019.36V206.437C1019.86 222.535 1030.01 232.946 1045.21 232.947C1057.08 232.947 1065.76 226.742 1068.43 216.338L1068.59 215.707H1084.03L1083.84 216.71C1080.26 234.953 1065.49 246.74 1046.2 246.74C1020.62 246.739 1003.42 229.015 1003.42 202.626C1003.42 189.804 1007.34 178.786 1014.75 170.785L1014.76 170.769C1022.19 162.736 1032.44 157.971 1044.39 157.971H1044.4ZM818.04 157.971C842.641 157.971 859.007 174.175 859.007 199.439C859.007 201.631 858.918 203.856 858.603 206.113H793.019V206.428C793.52 222.526 803.665 232.939 818.865 232.939C830.733 232.939 839.413 226.734 842.083 216.33L842.245 215.699H857.688L857.494 216.702C853.91 234.945 839.146 246.732 819.86 246.732C794.265 246.732 777.074 229.007 777.074 202.618C777.074 189.796 780.99 178.777 788.408 170.777L788.399 170.769C795.834 162.736 806.084 157.971 818.032 157.971H818.04ZM958.065 157.971C978.621 157.971 992.52 169.749 996.192 189.351L996.379 190.346H980.426L980.288 189.691C977.845 178.632 969.691 171.756 957.904 171.756C942.146 171.756 931.556 184.74 931.556 202.78C931.556 220.817 942.142 232.934 957.896 232.938C969.177 232.934 977.482 226.545 980.11 215.837H980.103L980.264 215.198H996.362L996.185 216.193C992.706 235.309 978.33 246.723 957.726 246.723C932.34 246.723 915.935 229.476 915.935 202.78C915.935 189.877 919.971 178.81 927.616 170.777C935.261 162.744 945.785 157.971 958.065 157.971ZM1224.62 141.112C1225.54 141.112 1226.31 141.864 1226.31 142.794V156.806C1226.31 157.728 1227.07 158.489 1227.99 158.489H1253.68C1254.61 158.489 1255.37 159.249 1255.37 160.179V170.955C1255.37 171.885 1254.61 172.646 1253.68 172.646H1228C1227.07 172.646 1226.31 173.398 1226.31 174.328V229.007C1226.31 230.398 1227.45 231.53 1228.84 231.531L1252.89 231.563C1254.28 231.563 1255.41 230.431 1255.41 229.039V219.053C1255.41 218.116 1256.17 217.359 1257.11 217.361L1267.92 217.382C1268.84 217.382 1269.6 218.11 1269.6 219.04V229.857C1269.6 230.787 1268.84 231.547 1267.91 231.547H1257.94C1256.55 231.547 1255.42 232.679 1255.42 234.071V241.537C1255.42 243.867 1253.53 245.752 1251.21 245.752H1235.12V245.72H1230.53C1228.2 245.72 1226.31 243.835 1226.31 241.505V234.038C1226.31 232.647 1225.18 231.515 1223.79 231.515H1213.82C1212.9 231.515 1212.14 230.762 1212.14 229.832V174.304C1212.14 173.382 1211.39 172.621 1210.46 172.621H1199.66C1198.74 172.621 1197.97 171.869 1197.97 170.939V160.156C1197.97 159.233 1198.73 158.472 1199.66 158.472H1210.46C1211.38 158.472 1212.14 157.72 1212.14 156.789V142.794C1212.14 141.872 1212.89 141.112 1213.82 141.112H1224.62ZM1336.33 158.456C1337.26 158.456 1338.02 159.217 1338.02 160.147V170.963C1338.02 171.893 1337.26 172.653 1336.33 172.654H1312.2C1310.81 172.654 1309.68 173.787 1309.68 175.178V182.596C1309.68 184.934 1307.78 186.819 1305.46 186.819H1297.18C1296.26 186.819 1295.5 187.579 1295.5 188.501V244.062C1295.5 244.992 1294.74 245.752 1293.81 245.752H1283C1282.07 245.752 1281.31 244.992 1281.31 244.062V160.156C1281.31 159.225 1282.07 158.464 1283 158.464H1293.81C1294.74 158.464 1295.5 159.225 1295.5 160.156V170.971C1295.5 171.893 1296.26 172.654 1297.18 172.654H1307.15C1308.54 172.654 1309.67 171.521 1309.67 170.13V162.687C1309.67 160.357 1311.56 158.464 1313.89 158.464H1336.34L1336.33 158.456ZM1408.38 158.456C1410.71 158.456 1412.6 160.341 1412.6 162.679V170.955C1412.6 171.885 1413.36 172.646 1414.29 172.646H1424.78C1425.89 172.646 1426.79 173.543 1426.79 174.652V229.589C1426.79 230.697 1425.89 231.596 1424.78 231.596H1415.13C1413.74 231.596 1412.6 232.728 1412.6 234.119V244.062C1412.6 244.992 1411.84 245.752 1410.91 245.752H1363.57C1361.24 245.752 1359.35 243.867 1359.35 241.53V233.286C1359.35 232.356 1358.59 231.596 1357.66 231.596H1349.39C1347.06 231.596 1345.17 229.702 1345.17 227.372V176.868C1345.17 174.539 1347.06 172.646 1349.39 172.646H1356.83C1358.22 172.646 1359.35 171.513 1359.35 170.121V160.147C1359.35 159.217 1360.11 158.456 1361.04 158.456H1408.38ZM1453.34 158.456C1454.27 158.456 1455.03 159.217 1455.03 160.147V170.947C1455.03 171.877 1455.79 172.638 1456.72 172.638H1466.68C1468.07 172.638 1469.2 171.505 1469.2 170.114V160.156C1469.2 159.225 1469.95 158.464 1470.89 158.464H1481.68C1482.61 158.464 1483.37 159.225 1483.37 160.156V170.114C1483.37 171.505 1484.51 172.638 1485.9 172.638H1495.81C1496.94 172.638 1498.01 173.075 1498.81 173.867L1510.51 186.601C1511.3 187.394 1511.74 188.469 1511.74 189.585V244.054C1511.74 244.984 1510.98 245.744 1510.05 245.744H1499.25C1498.31 245.744 1497.55 244.984 1497.55 244.054V188.518C1497.55 187.588 1496.79 186.827 1495.86 186.827H1485.06C1484.13 186.827 1483.37 186.066 1483.37 185.136V175.146C1483.37 173.754 1482.24 172.621 1480.85 172.621H1471.73C1470.34 172.621 1469.21 173.754 1469.21 175.146V185.136C1469.21 186.066 1468.45 186.827 1467.52 186.827H1456.72C1455.79 186.828 1455.03 187.588 1455.03 188.518V244.054C1455.03 244.984 1454.27 245.744 1453.34 245.744H1442.53C1441.61 245.744 1440.84 244.984 1440.84 244.062V160.147C1440.84 159.217 1441.61 158.456 1442.54 158.456H1453.34ZM737.435 135.862C757.295 135.862 773.45 152.025 773.45 171.877C773.45 191.729 757.287 207.893 737.435 207.893H705.439V245.729H690.255L690.223 135.862H737.435ZM882.095 166.246C881.828 167.735 883.567 168.671 884.676 167.72L884.772 167.63C890.168 162.202 897.505 158.464 904.454 158.464L912.439 158.472V173.77H904.455C892.879 173.77 883.494 183.154 883.494 194.731V245.72H868.302V158.456H883.494L882.095 166.246ZM957.888 232.939H957.904C957.902 232.939 957.899 232.938 957.896 232.938C957.894 232.938 957.891 232.939 957.888 232.939ZM1361.87 172.646C1360.47 172.646 1359.34 173.778 1359.34 175.169V215.691C1359.34 216.621 1360.1 217.382 1361.03 217.382H1369.31C1371.64 217.382 1373.53 219.267 1373.53 221.605V229.913C1373.53 230.843 1374.29 231.604 1375.22 231.604H1410.07C1411.46 231.604 1412.6 230.471 1412.6 229.079V188.533C1412.6 187.603 1411.84 186.843 1410.91 186.843H1402.64C1400.31 186.843 1398.41 184.95 1398.41 182.62V174.344C1398.41 173.414 1397.65 172.654 1396.73 172.654L1396.72 172.646H1361.87ZM1153.81 172.629C1153.81 172.629 1143.08 172.314 1137.04 172.629C1120.89 172.985 1108.89 183.259 1108.89 202.068H1108.88C1108.88 221.143 1120.91 230.835 1137.68 231.474C1145.14 231.644 1153.81 231.474 1153.81 231.474C1154.74 231.474 1155.5 230.713 1155.5 229.791V221.484C1155.5 219.154 1157.38 217.269 1159.71 217.269H1167.08C1168.47 217.269 1169.6 216.136 1169.6 214.744V189.343C1169.6 187.952 1168.47 186.819 1167.08 186.819H1159.71C1157.38 186.819 1155.5 184.934 1155.5 182.604V174.312C1155.5 173.39 1154.74 172.629 1153.81 172.629ZM818.194 171.586C805.825 171.586 795.568 181.091 793.941 193.145H842.625C841.056 179.959 831.987 171.586 818.194 171.586ZM1044.55 171.586C1032.18 171.586 1021.93 181.091 1020.3 193.145H1068.98C1067.41 179.959 1058.35 171.586 1044.55 171.586ZM705.447 151.054V192.708H737.435L737.442 192.7C748.922 192.7 758.266 183.356 758.266 171.877C758.266 160.398 748.93 151.054 737.442 151.054H705.447Z" fill="#1E130E"/>
<path fill-rule="evenodd" clip-rule="evenodd" d="M532.606 246.905L598.655 180.67C599.535 179.783 601.016 179.969 601.653 181.049L637.074 241.039C639.228 244.68 643.542 246.448 647.634 245.353C652.406 244.072 655.382 239.322 654.452 234.471L641.489 166.891C639.829 158.248 633.383 151.315 624.883 149.033C618.037 147.202 610.789 148.64 605.209 152.811C604.271 153.512 602.919 153.347 602.218 152.41C596.538 144.798 588.439 139.267 579.174 136.785C565.058 133 548.489 137.414 538.057 147.867L472.008 214.103C471.128 214.99 469.647 214.804 469.01 213.723L433.589 153.734C431.435 150.092 427.121 148.325 423.029 149.42C418.257 150.7 415.281 155.451 416.211 160.301L429.175 227.882C430.834 236.524 437.281 243.457 445.78 245.739C452.627 247.571 459.874 246.133 465.455 241.962C466.392 241.261 467.744 241.425 468.445 242.362C474.126 249.975 482.225 255.505 491.489 257.988C507.215 262.202 521.395 258.145 532.606 246.905ZM479.327 228.397C478.712 229.012 478.59 229.971 479.034 230.715L479.077 230.794C482.697 236.918 488.57 241.382 495.439 243.228C504.825 245.746 514.849 243.049 521.71 236.167L591.322 166.376C591.937 165.76 592.059 164.802 591.615 164.057L591.572 163.979C587.952 157.855 582.079 153.39 575.21 151.544C565.824 149.026 555.8 151.723 548.939 158.606L479.327 228.397ZM631.015 193.419C631.415 195.523 628.582 196.596 627.495 194.75L612.299 169.015C611.855 168.264 611.977 167.313 612.592 166.697L613.493 165.789C615.432 163.843 618.265 163.084 620.92 163.793C623.76 164.551 625.921 166.876 626.479 169.767L631.015 193.419ZM439.642 201.353C439.241 199.25 442.074 198.177 443.161 200.023L458.357 225.757C458.801 226.508 458.679 227.46 458.064 228.075L457.163 228.984C455.224 230.93 452.391 231.688 449.736 230.98C446.896 230.221 444.735 227.896 444.177 225.006L439.642 201.353Z" fill="url(#paint0_linear_59_20311)"/>
<path fill-rule="evenodd" clip-rule="evenodd" d="M532.606 246.905L598.655 180.67C599.535 179.783 601.016 179.969 601.653 181.049L637.074 241.039C639.228 244.68 643.542 246.448 647.634 245.353C652.406 244.072 655.382 239.322 654.452 234.471L641.489 166.891C639.829 158.248 633.383 151.315 624.883 149.033C618.037 147.202 610.789 148.64 605.209 152.811C604.271 153.512 602.919 153.347 602.218 152.41C596.538 144.798 588.439 139.267 579.174 136.785C565.058 133 548.489 137.414 538.057 147.867L472.008 214.103C471.128 214.99 469.647 214.804 469.01 213.723L433.589 153.734C431.435 150.092 427.121 148.325 423.029 149.42C418.257 150.7 415.281 155.451 416.211 160.301L429.175 227.882C430.834 236.524 437.281 243.457 445.78 245.739C452.627 247.571 459.874 246.133 465.455 241.962C466.392 241.261 467.744 241.425 468.445 242.362C474.126 249.975 482.225 255.505 491.489 257.988C507.215 262.202 521.395 258.145 532.606 246.905ZM479.327 228.397C478.712 229.012 478.59 229.971 479.034 230.715L479.077 230.794C482.697 236.918 488.57 241.382 495.439 243.228C504.825 245.746 514.849 243.049 521.71 236.167L591.322 166.376C591.937 165.76 592.059 164.802 591.615 164.057L591.572 163.979C587.952 157.855 582.079 153.39 575.21 151.544C565.824 149.026 555.8 151.723 548.939 158.606L479.327 228.397ZM631.015 193.419C631.415 195.523 628.582 196.596 627.495 194.75L612.299 169.015C611.855 168.264 611.977 167.313 612.592 166.697L613.493 165.789C615.432 163.843 618.265 163.084 620.92 163.793C623.76 164.551 625.921 166.876 626.479 169.767L631.015 193.419ZM439.642 201.353C439.241 199.25 442.074 198.177 443.161 200.023L458.357 225.757C458.801 226.508 458.679 227.46 458.064 228.075L457.163 228.984C455.224 230.93 452.391 231.688 449.736 230.98C446.896 230.221 444.735 227.896 444.177 225.006L439.642 201.353Z" fill="url(#paint1_linear_59_20311)"/>
<path fill-rule="evenodd" clip-rule="evenodd" d="M532.606 246.905L598.655 180.67C599.535 179.783 601.016 179.969 601.653 181.049L637.074 241.039C639.228 244.68 643.542 246.448 647.634 245.353C652.406 244.072 655.382 239.322 654.452 234.471L641.489 166.891C639.829 158.248 633.383 151.315 624.883 149.033C618.037 147.202 610.789 148.64 605.209 152.811C604.271 153.512 602.919 153.347 602.218 152.41C596.538 144.798 588.439 139.267 579.174 136.785C565.058 133 548.489 137.414 538.057 147.867L472.008 214.103C471.128 214.99 469.647 214.804 469.01 213.723L433.589 153.734C431.435 150.092 427.121 148.325 423.029 149.42C418.257 150.7 415.281 155.451 416.211 160.301L429.175 227.882C430.834 236.524 437.281 243.457 445.78 245.739C452.627 247.571 459.874 246.133 465.455 241.962C466.392 241.261 467.744 241.425 468.445 242.362C474.126 249.975 482.225 255.505 491.489 257.988C507.215 262.202 521.395 258.145 532.606 246.905ZM479.327 228.397C478.712 229.012 478.59 229.971 479.034 230.715L479.077 230.794C482.697 236.918 488.57 241.382 495.439 243.228C504.825 245.746 514.849 243.049 521.71 236.167L591.322 166.376C591.937 165.76 592.059 164.802 591.615 164.057L591.572 163.979C587.952 157.855 582.079 153.39 575.21 151.544C565.824 149.026 555.8 151.723 548.939 158.606L479.327 228.397ZM631.015 193.419C631.415 195.523 628.582 196.596 627.495 194.75L612.299 169.015C611.855 168.264 611.977 167.313 612.592 166.697L613.493 165.789C615.432 163.843 618.265 163.084 620.92 163.793C623.76 164.551 625.921 166.876 626.479 169.767L631.015 193.419ZM439.642 201.353C439.241 199.25 442.074 198.177 443.161 200.023L458.357 225.757C458.801 226.508 458.679 227.46 458.064 228.075L457.163 228.984C455.224 230.93 452.391 231.688 449.736 230.98C446.896 230.221 444.735 227.896 444.177 225.006L439.642 201.353Z" fill="url(#paint2_linear_59_20311)"/>
<path fill-rule="evenodd" clip-rule="evenodd" d="M532.606 246.905L598.655 180.67C599.535 179.783 601.016 179.969 601.653 181.049L637.074 241.039C639.228 244.68 643.542 246.448 647.634 245.353C652.406 244.072 655.382 239.322 654.452 234.471L641.489 166.891C639.829 158.248 633.383 151.315 624.883 149.033C618.037 147.202 610.789 148.64 605.209 152.811C604.271 153.512 602.919 153.347 602.218 152.41C596.538 144.798 588.439 139.267 579.174 136.785C565.058 133 548.489 137.414 538.057 147.867L472.008 214.103C471.128 214.99 469.647 214.804 469.01 213.723L433.589 153.734C431.435 150.092 427.121 148.325 423.029 149.42C418.257 150.7 415.281 155.451 416.211 160.301L429.175 227.882C430.834 236.524 437.281 243.457 445.78 245.739C452.627 247.571 459.874 246.133 465.455 241.962C466.392 241.261 467.744 241.425 468.445 242.362C474.126 249.975 482.225 255.505 491.489 257.988C507.215 262.202 521.395 258.145 532.606 246.905ZM479.327 228.397C478.712 229.012 478.59 229.971 479.034 230.715L479.077 230.794C482.697 236.918 488.57 241.382 495.439 243.228C504.825 245.746 514.849 243.049 521.71 236.167L591.322 166.376C591.937 165.76 592.059 164.802 591.615 164.057L591.572 163.979C587.952 157.855 582.079 153.39 575.21 151.544C565.824 149.026 555.8 151.723 548.939 158.606L479.327 228.397ZM631.015 193.419C631.415 195.523 628.582 196.596 627.495 194.75L612.299 169.015C611.855 168.264 611.977 167.313 612.592 166.697L613.493 165.789C615.432 163.843 618.265 163.084 620.92 163.793C623.76 164.551 625.921 166.876 626.479 169.767L631.015 193.419ZM439.642 201.353C439.241 199.25 442.074 198.177 443.161 200.023L458.357 225.757C458.801 226.508 458.679 227.46 458.064 228.075L457.163 228.984C455.224 230.93 452.391 231.688 449.736 230.98C446.896 230.221 444.735 227.896 444.177 225.006L439.642 201.353Z" fill="url(#paint3_linear_59_20311)"/>
<path fill-rule="evenodd" clip-rule="evenodd" d="M532.606 246.905L598.655 180.67C599.535 179.783 601.016 179.969 601.653 181.049L637.074 241.039C639.228 244.68 643.542 246.448 647.634 245.353C652.406 244.072 655.382 239.322 654.452 234.471L641.489 166.891C639.829 158.248 633.383 151.315 624.883 149.033C618.037 147.202 610.789 148.64 605.209 152.811C604.271 153.512 602.919 153.347 602.218 152.41C596.538 144.798 588.439 139.267 579.174 136.785C565.058 133 548.489 137.414 538.057 147.867L472.008 214.103C471.128 214.99 469.647 214.804 469.01 213.723L433.589 153.734C431.435 150.092 427.121 148.325 423.029 149.42C418.257 150.7 415.281 155.451 416.211 160.301L429.175 227.882C430.834 236.524 437.281 243.457 445.78 245.739C452.627 247.571 459.874 246.133 465.455 241.962C466.392 241.261 467.744 241.425 468.445 242.362C474.126 249.975 482.225 255.505 491.489 257.988C507.215 262.202 521.395 258.145 532.606 246.905ZM479.327 228.397C478.712 229.012 478.59 229.971 479.034 230.715L479.077 230.794C482.697 236.918 488.57 241.382 495.439 243.228C504.825 245.746 514.849 243.049 521.71 236.167L591.322 166.376C591.937 165.76 592.059 164.802 591.615 164.057L591.572 163.979C587.952 157.855 582.079 153.39 575.21 151.544C565.824 149.026 555.8 151.723 548.939 158.606L479.327 228.397ZM631.015 193.419C631.415 195.523 628.582 196.596 627.495 194.75L612.299 169.015C611.855 168.264 611.977 167.313 612.592 166.697L613.493 165.789C615.432 163.843 618.265 163.084 620.92 163.793C623.76 164.551 625.921 166.876 626.479 169.767L631.015 193.419ZM439.642 201.353C439.241 199.25 442.074 198.177 443.161 200.023L458.357 225.757C458.801 226.508 458.679 227.46 458.064 228.075L457.163 228.984C455.224 230.93 452.391 231.688 449.736 230.98C446.896 230.221 444.735 227.896 444.177 225.006L439.642 201.353Z" fill="url(#paint4_linear_59_20311)"/>
<path fill-rule="evenodd" clip-rule="evenodd" d="M532.606 246.905L598.655 180.67C599.535 179.783 601.016 179.969 601.653 181.049L637.074 241.039C639.228 244.68 643.542 246.448 647.634 245.353C652.406 244.072 655.382 239.322 654.452 234.471L641.489 166.891C639.829 158.248 633.383 151.315 624.883 149.033C618.037 147.202 610.789 148.64 605.209 152.811C604.271 153.512 602.919 153.347 602.218 152.41C596.538 144.798 588.439 139.267 579.174 136.785C565.058 133 548.489 137.414 538.057 147.867L472.008 214.103C471.128 214.99 469.647 214.804 469.01 213.723L433.589 153.734C431.435 150.092 427.121 148.325 423.029 149.42C418.257 150.7 415.281 155.451 416.211 160.301L429.175 227.882C430.834 236.524 437.281 243.457 445.78 245.739C452.627 247.571 459.874 246.133 465.455 241.962C466.392 241.261 467.744 241.425 468.445 242.362C474.126 249.975 482.225 255.505 491.489 257.988C507.215 262.202 521.395 258.145 532.606 246.905ZM479.327 228.397C478.712 229.012 478.59 229.971 479.034 230.715L479.077 230.794C482.697 236.918 488.57 241.382 495.439 243.228C504.825 245.746 514.849 243.049 521.71 236.167L591.322 166.376C591.937 165.76 592.059 164.802 591.615 164.057L591.572 163.979C587.952 157.855 582.079 153.39 575.21 151.544C565.824 149.026 555.8 151.723 548.939 158.606L479.327 228.397ZM631.015 193.419C631.415 195.523 628.582 196.596 627.495 194.75L612.299 169.015C611.855 168.264 611.977 167.313 612.592 166.697L613.493 165.789C615.432 163.843 618.265 163.084 620.92 163.793C623.76 164.551 625.921 166.876 626.479 169.767L631.015 193.419ZM439.642 201.353C439.241 199.25 442.074 198.177 443.161 200.023L458.357 225.757C458.801 226.508 458.679 227.46 458.064 228.075L457.163 228.984C455.224 230.93 452.391 231.688 449.736 230.98C446.896 230.221 444.735 227.896 444.177 225.006L439.642 201.353Z" fill="url(#paint5_linear_59_20311)"/>
<path fill-rule="evenodd" clip-rule="evenodd" d="M532.606 246.905L598.655 180.67C599.535 179.783 601.016 179.969 601.653 181.049L637.074 241.039C639.228 244.68 643.542 246.448 647.634 245.353C652.406 244.072 655.382 239.322 654.452 234.471L641.489 166.891C639.829 158.248 633.383 151.315 624.883 149.033C618.037 147.202 610.789 148.64 605.209 152.811C604.271 153.512 602.919 153.347 602.218 152.41C596.538 144.798 588.439 139.267 579.174 136.785C565.058 133 548.489 137.414 538.057 147.867L472.008 214.103C471.128 214.99 469.647 214.804 469.01 213.723L433.589 153.734C431.435 150.092 427.121 148.325 423.029 149.42C418.257 150.7 415.281 155.451 416.211 160.301L429.175 227.882C430.834 236.524 437.281 243.457 445.78 245.739C452.627 247.571 459.874 246.133 465.455 241.962C466.392 241.261 467.744 241.425 468.445 242.362C474.126 249.975 482.225 255.505 491.489 257.988C507.215 262.202 521.395 258.145 532.606 246.905ZM479.327 228.397C478.712 229.012 478.59 229.971 479.034 230.715L479.077 230.794C482.697 236.918 488.57 241.382 495.439 243.228C504.825 245.746 514.849 243.049 521.71 236.167L591.322 166.376C591.937 165.76 592.059 164.802 591.615 164.057L591.572 163.979C587.952 157.855 582.079 153.39 575.21 151.544C565.824 149.026 555.8 151.723 548.939 158.606L479.327 228.397ZM631.015 193.419C631.415 195.523 628.582 196.596 627.495 194.75L612.299 169.015C611.855 168.264 611.977 167.313 612.592 166.697L613.493 165.789C615.432 163.843 618.265 163.084 620.92 163.793C623.76 164.551 625.921 166.876 626.479 169.767L631.015 193.419ZM439.642 201.353C439.241 199.25 442.074 198.177 443.161 200.023L458.357 225.757C458.801 226.508 458.679 227.46 458.064 228.075L457.163 228.984C455.224 230.93 452.391 231.688 449.736 230.98C446.896 230.221 444.735 227.896 444.177 225.006L439.642 201.353Z" fill="url(#paint6_linear_59_20311)"/>
<path fill-rule="evenodd" clip-rule="evenodd" d="M532.606 246.905L598.655 180.67C599.535 179.783 601.016 179.969 601.653 181.049L637.074 241.039C639.228 244.68 643.542 246.448 647.634 245.353C652.406 244.072 655.382 239.322 654.452 234.471L641.489 166.891C639.829 158.248 633.383 151.315 624.883 149.033C618.037 147.202 610.789 148.64 605.209 152.811C604.271 153.512 602.919 153.347 602.218 152.41C596.538 144.798 588.439 139.267 579.174 136.785C565.058 133 548.489 137.414 538.057 147.867L472.008 214.103C471.128 214.99 469.647 214.804 469.01 213.723L433.589 153.734C431.435 150.092 427.121 148.325 423.029 149.42C418.257 150.7 415.281 155.451 416.211 160.301L429.175 227.882C430.834 236.524 437.281 243.457 445.78 245.739C452.627 247.571 459.874 246.133 465.455 241.962C466.392 241.261 467.744 241.425 468.445 242.362C474.126 249.975 482.225 255.505 491.489 257.988C507.215 262.202 521.395 258.145 532.606 246.905ZM479.327 228.397C478.712 229.012 478.59 229.971 479.034 230.715L479.077 230.794C482.697 236.918 488.57 241.382 495.439 243.228C504.825 245.746 514.849 243.049 521.71 236.167L591.322 166.376C591.937 165.76 592.059 164.802 591.615 164.057L591.572 163.979C587.952 157.855 582.079 153.39 575.21 151.544C565.824 149.026 555.8 151.723 548.939 158.606L479.327 228.397ZM631.015 193.419C631.415 195.523 628.582 196.596 627.495 194.75L612.299 169.015C611.855 168.264 611.977 167.313 612.592 166.697L613.493 165.789C615.432 163.843 618.265 163.084 620.92 163.793C623.76 164.551 625.921 166.876 626.479 169.767L631.015 193.419ZM439.642 201.353C439.241 199.25 442.074 198.177 443.161 200.023L458.357 225.757C458.801 226.508 458.679 227.46 458.064 228.075L457.163 228.984C455.224 230.93 452.391 231.688 449.736 230.98C446.896 230.221 444.735 227.896 444.177 225.006L439.642 201.353Z" fill="url(#paint7_linear_59_20311)"/>
<path fill-rule="evenodd" clip-rule="evenodd" d="M532.606 246.905L598.655 180.67C599.535 179.783 601.016 179.969 601.653 181.049L637.074 241.039C639.228 244.68 643.542 246.448 647.634 245.353C652.406 244.072 655.382 239.322 654.452 234.471L641.489 166.891C639.829 158.248 633.383 151.315 624.883 149.033C618.037 147.202 610.789 148.64 605.209 152.811C604.271 153.512 602.919 153.347 602.218 152.41C596.538 144.798 588.439 139.267 579.174 136.785C565.058 133 548.489 137.414 538.057 147.867L472.008 214.103C471.128 214.99 469.647 214.804 469.01 213.723L433.589 153.734C431.435 150.092 427.121 148.325 423.029 149.42C418.257 150.7 415.281 155.451 416.211 160.301L429.175 227.882C430.834 236.524 437.281 243.457 445.78 245.739C452.627 247.571 459.874 246.133 465.455 241.962C466.392 241.261 467.744 241.425 468.445 242.362C474.126 249.975 482.225 255.505 491.489 257.988C507.215 262.202 521.395 258.145 532.606 246.905ZM479.327 228.397C478.712 229.012 478.59 229.971 479.034 230.715L479.077 230.794C482.697 236.918 488.57 241.382 495.439 243.228C504.825 245.746 514.849 243.049 521.71 236.167L591.322 166.376C591.937 165.76 592.059 164.802 591.615 164.057L591.572 163.979C587.952 157.855 582.079 153.39 575.21 151.544C565.824 149.026 555.8 151.723 548.939 158.606L479.327 228.397ZM631.015 193.419C631.415 195.523 628.582 196.596 627.495 194.75L612.299 169.015C611.855 168.264 611.977 167.313 612.592 166.697L613.493 165.789C615.432 163.843 618.265 163.084 620.92 163.793C623.76 164.551 625.921 166.876 626.479 169.767L631.015 193.419ZM439.642 201.353C439.241 199.25 442.074 198.177 443.161 200.023L458.357 225.757C458.801 226.508 458.679 227.46 458.064 228.075L457.163 228.984C455.224 230.93 452.391 231.688 449.736 230.98C446.896 230.221 444.735 227.896 444.177 225.006L439.642 201.353Z" fill="url(#paint8_linear_59_20311)"/>
<path fill-rule="evenodd" clip-rule="evenodd" d="M532.606 246.905L598.655 180.67C599.535 179.783 601.016 179.969 601.653 181.049L637.074 241.039C639.228 244.68 643.542 246.448 647.634 245.353C652.406 244.072 655.382 239.322 654.452 234.471L641.489 166.891C639.829 158.248 633.383 151.315 624.883 149.033C618.037 147.202 610.789 148.64 605.209 152.811C604.271 153.512 602.919 153.347 602.218 152.41C596.538 144.798 588.439 139.267 579.174 136.785C565.058 133 548.489 137.414 538.057 147.867L472.008 214.103C471.128 214.99 469.647 214.804 469.01 213.723L433.589 153.734C431.435 150.092 427.121 148.325 423.029 149.42C418.257 150.7 415.281 155.451 416.211 160.301L429.175 227.882C430.834 236.524 437.281 243.457 445.78 245.739C452.627 247.571 459.874 246.133 465.455 241.962C466.392 241.261 467.744 241.425 468.445 242.362C474.126 249.975 482.225 255.505 491.489 257.988C507.215 262.202 521.395 258.145 532.606 246.905ZM479.327 228.397C478.712 229.012 478.59 229.971 479.034 230.715L479.077 230.794C482.697 236.918 488.57 241.382 495.439 243.228C504.825 245.746 514.849 243.049 521.71 236.167L591.322 166.376C591.937 165.76 592.059 164.802 591.615 164.057L591.572 163.979C587.952 157.855 582.079 153.39 575.21 151.544C565.824 149.026 555.8 151.723 548.939 158.606L479.327 228.397ZM631.015 193.419C631.415 195.523 628.582 196.596 627.495 194.75L612.299 169.015C611.855 168.264 611.977 167.313 612.592 166.697L613.493 165.789C615.432 163.843 618.265 163.084 620.92 163.793C623.76 164.551 625.921 166.876 626.479 169.767L631.015 193.419ZM439.642 201.353C439.241 199.25 442.074 198.177 443.161 200.023L458.357 225.757C458.801 226.508 458.679 227.46 458.064 228.075L457.163 228.984C455.224 230.93 452.391 231.688 449.736 230.98C446.896 230.221 444.735 227.896 444.177 225.006L439.642 201.353Z" fill="url(#paint9_linear_59_20311)"/>
<path fill-rule="evenodd" clip-rule="evenodd" d="M532.606 246.905L598.655 180.67C599.535 179.783 601.016 179.969 601.653 181.049L637.074 241.039C639.228 244.68 643.542 246.448 647.634 245.353C652.406 244.072 655.382 239.322 654.452 234.471L641.489 166.891C639.829 158.248 633.383 151.315 624.883 149.033C618.037 147.202 610.789 148.64 605.209 152.811C604.271 153.512 602.919 153.347 602.218 152.41C596.538 144.798 588.439 139.267 579.174 136.785C565.058 133 548.489 137.414 538.057 147.867L472.008 214.103C471.128 214.99 469.647 214.804 469.01 213.723L433.589 153.734C431.435 150.092 427.121 148.325 423.029 149.42C418.257 150.7 415.281 155.451 416.211 160.301L429.175 227.882C430.834 236.524 437.281 243.457 445.78 245.739C452.627 247.571 459.874 246.133 465.455 241.962C466.392 241.261 467.744 241.425 468.445 242.362C474.126 249.975 482.225 255.505 491.489 257.988C507.215 262.202 521.395 258.145 532.606 246.905ZM479.327 228.397C478.712 229.012 478.59 229.971 479.034 230.715L479.077 230.794C482.697 236.918 488.57 241.382 495.439 243.228C504.825 245.746 514.849 243.049 521.71 236.167L591.322 166.376C591.937 165.76 592.059 164.802 591.615 164.057L591.572 163.979C587.952 157.855 582.079 153.39 575.21 151.544C565.824 149.026 555.8 151.723 548.939 158.606L479.327 228.397ZM631.015 193.419C631.415 195.523 628.582 196.596 627.495 194.75L612.299 169.015C611.855 168.264 611.977 167.313 612.592 166.697L613.493 165.789C615.432 163.843 618.265 163.084 620.92 163.793C623.76 164.551 625.921 166.876 626.479 169.767L631.015 193.419ZM439.642 201.353C439.241 199.25 442.074 198.177 443.161 200.023L458.357 225.757C458.801 226.508 458.679 227.46 458.064 228.075L457.163 228.984C455.224 230.93 452.391 231.688 449.736 230.98C446.896 230.221 444.735 227.896 444.177 225.006L439.642 201.353Z" fill="url(#paint10_linear_59_20311)"/>
<path fill-rule="evenodd" clip-rule="evenodd" d="M532.606 246.905L598.655 180.67C599.535 179.783 601.016 179.969 601.653 181.049L637.074 241.039C639.228 244.68 643.542 246.448 647.634 245.353C652.406 244.072 655.382 239.322 654.452 234.471L641.489 166.891C639.829 158.248 633.383 151.315 624.883 149.033C618.037 147.202 610.789 148.64 605.209 152.811C604.271 153.512 602.919 153.347 602.218 152.41C596.538 144.798 588.439 139.267 579.174 136.785C565.058 133 548.489 137.414 538.057 147.867L472.008 214.103C471.128 214.99 469.647 214.804 469.01 213.723L433.589 153.734C431.435 150.092 427.121 148.325 423.029 149.42C418.257 150.7 415.281 155.451 416.211 160.301L429.175 227.882C430.834 236.524 437.281 243.457 445.78 245.739C452.627 247.571 459.874 246.133 465.455 241.962C466.392 241.261 467.744 241.425 468.445 242.362C474.126 249.975 482.225 255.505 491.489 257.988C507.215 262.202 521.395 258.145 532.606 246.905ZM479.327 228.397C478.712 229.012 478.59 229.971 479.034 230.715L479.077 230.794C482.697 236.918 488.57 241.382 495.439 243.228C504.825 245.746 514.849 243.049 521.71 236.167L591.322 166.376C591.937 165.76 592.059 164.802 591.615 164.057L591.572 163.979C587.952 157.855 582.079 153.39 575.21 151.544C565.824 149.026 555.8 151.723 548.939 158.606L479.327 228.397ZM631.015 193.419C631.415 195.523 628.582 196.596 627.495 194.75L612.299 169.015C611.855 168.264 611.977 167.313 612.592 166.697L613.493 165.789C615.432 163.843 618.265 163.084 620.92 163.793C623.76 164.551 625.921 166.876 626.479 169.767L631.015 193.419ZM439.642 201.353C439.241 199.25 442.074 198.177 443.161 200.023L458.357 225.757C458.801 226.508 458.679 227.46 458.064 228.075L457.163 228.984C455.224 230.93 452.391 231.688 449.736 230.98C446.896 230.221 444.735 227.896 444.177 225.006L439.642 201.353Z" fill="url(#paint11_radial_59_20311)"/>
<path fill-rule="evenodd" clip-rule="evenodd" d="M532.606 246.905L598.655 180.67C599.535 179.783 601.016 179.969 601.653 181.049L637.074 241.039C639.228 244.68 643.542 246.448 647.634 245.353C652.406 244.072 655.382 239.322 654.452 234.471L641.489 166.891C639.829 158.248 633.383 151.315 624.883 149.033C618.037 147.202 610.789 148.64 605.209 152.811C604.271 153.512 602.919 153.347 602.218 152.41C596.538 144.798 588.439 139.267 579.174 136.785C565.058 133 548.489 137.414 538.057 147.867L472.008 214.103C471.128 214.99 469.647 214.804 469.01 213.723L433.589 153.734C431.435 150.092 427.121 148.325 423.029 149.42C418.257 150.7 415.281 155.451 416.211 160.301L429.175 227.882C430.834 236.524 437.281 243.457 445.78 245.739C452.627 247.571 459.874 246.133 465.455 241.962C466.392 241.261 467.744 241.425 468.445 242.362C474.126 249.975 482.225 255.505 491.489 257.988C507.215 262.202 521.395 258.145 532.606 246.905ZM479.327 228.397C478.712 229.012 478.59 229.971 479.034 230.715L479.077 230.794C482.697 236.918 488.57 241.382 495.439 243.228C504.825 245.746 514.849 243.049 521.71 236.167L591.322 166.376C591.937 165.76 592.059 164.802 591.615 164.057L591.572 163.979C587.952 157.855 582.079 153.39 575.21 151.544C565.824 149.026 555.8 151.723 548.939 158.606L479.327 228.397ZM631.015 193.419C631.415 195.523 628.582 196.596 627.495 194.75L612.299 169.015C611.855 168.264 611.977 167.313 612.592 166.697L613.493 165.789C615.432 163.843 618.265 163.084 620.92 163.793C623.76 164.551 625.921 166.876 626.479 169.767L631.015 193.419ZM439.642 201.353C439.241 199.25 442.074 198.177 443.161 200.023L458.357 225.757C458.801 226.508 458.679 227.46 458.064 228.075L457.163 228.984C455.224 230.93 452.391 231.688 449.736 230.98C446.896 230.221 444.735 227.896 444.177 225.006L439.642 201.353Z" fill="url(#paint12_radial_59_20311)"/>
<path fill-rule="evenodd" clip-rule="evenodd" d="M532.606 246.905L598.655 180.67C599.535 179.783 601.016 179.969 601.653 181.049L637.074 241.039C639.228 244.68 643.542 246.448 647.634 245.353C652.406 244.072 655.382 239.322 654.452 234.471L641.489 166.891C639.829 158.248 633.383 151.315 624.883 149.033C618.037 147.202 610.789 148.64 605.209 152.811C604.271 153.512 602.919 153.347 602.218 152.41C596.538 144.798 588.439 139.267 579.174 136.785C565.058 133 548.489 137.414 538.057 147.867L472.008 214.103C471.128 214.99 469.647 214.804 469.01 213.723L433.589 153.734C431.435 150.092 427.121 148.325 423.029 149.42C418.257 150.7 415.281 155.451 416.211 160.301L429.175 227.882C430.834 236.524 437.281 243.457 445.78 245.739C452.627 247.571 459.874 246.133 465.455 241.962C466.392 241.261 467.744 241.425 468.445 242.362C474.126 249.975 482.225 255.505 491.489 257.988C507.215 262.202 521.395 258.145 532.606 246.905ZM479.327 228.397C478.712 229.012 478.59 229.971 479.034 230.715L479.077 230.794C482.697 236.918 488.57 241.382 495.439 243.228C504.825 245.746 514.849 243.049 521.71 236.167L591.322 166.376C591.937 165.76 592.059 164.802 591.615 164.057L591.572 163.979C587.952 157.855 582.079 153.39 575.21 151.544C565.824 149.026 555.8 151.723 548.939 158.606L479.327 228.397ZM631.015 193.419C631.415 195.523 628.582 196.596 627.495 194.75L612.299 169.015C611.855 168.264 611.977 167.313 612.592 166.697L613.493 165.789C615.432 163.843 618.265 163.084 620.92 163.793C623.76 164.551 625.921 166.876 626.479 169.767L631.015 193.419ZM439.642 201.353C439.241 199.25 442.074 198.177 443.161 200.023L458.357 225.757C458.801 226.508 458.679 227.46 458.064 228.075L457.163 228.984C455.224 230.93 452.391 231.688 449.736 230.98C446.896 230.221 444.735 227.896 444.177 225.006L439.642 201.353Z" fill="url(#paint13_radial_59_20311)"/>
<path fill-rule="evenodd" clip-rule="evenodd" d="M532.606 246.905L598.655 180.67C599.535 179.783 601.016 179.969 601.653 181.049L637.074 241.039C639.228 244.68 643.542 246.448 647.634 245.353C652.406 244.072 655.382 239.322 654.452 234.471L641.489 166.891C639.829 158.248 633.383 151.315 624.883 149.033C618.037 147.202 610.789 148.64 605.209 152.811C604.271 153.512 602.919 153.347 602.218 152.41C596.538 144.798 588.439 139.267 579.174 136.785C565.058 133 548.489 137.414 538.057 147.867L472.008 214.103C471.128 214.99 469.647 214.804 469.01 213.723L433.589 153.734C431.435 150.092 427.121 148.325 423.029 149.42C418.257 150.7 415.281 155.451 416.211 160.301L429.175 227.882C430.834 236.524 437.281 243.457 445.78 245.739C452.627 247.571 459.874 246.133 465.455 241.962C466.392 241.261 467.744 241.425 468.445 242.362C474.126 249.975 482.225 255.505 491.489 257.988C507.215 262.202 521.395 258.145 532.606 246.905ZM479.327 228.397C478.712 229.012 478.59 229.971 479.034 230.715L479.077 230.794C482.697 236.918 488.57 241.382 495.439 243.228C504.825 245.746 514.849 243.049 521.71 236.167L591.322 166.376C591.937 165.76 592.059 164.802 591.615 164.057L591.572 163.979C587.952 157.855 582.079 153.39 575.21 151.544C565.824 149.026 555.8 151.723 548.939 158.606L479.327 228.397ZM631.015 193.419C631.415 195.523 628.582 196.596 627.495 194.75L612.299 169.015C611.855 168.264 611.977 167.313 612.592 166.697L613.493 165.789C615.432 163.843 618.265 163.084 620.92 163.793C623.76 164.551 625.921 166.876 626.479 169.767L631.015 193.419ZM439.642 201.353C439.241 199.25 442.074 198.177 443.161 200.023L458.357 225.757C458.801 226.508 458.679 227.46 458.064 228.075L457.163 228.984C455.224 230.93 452.391 231.688 449.736 230.98C446.896 230.221 444.735 227.896 444.177 225.006L439.642 201.353Z" fill="url(#paint14_radial_59_20311)"/>
<path fill-rule="evenodd" clip-rule="evenodd" d="M532.606 246.905L598.655 180.67C599.535 179.783 601.016 179.969 601.653 181.049L637.074 241.039C639.228 244.68 643.542 246.448 647.634 245.353C652.406 244.072 655.382 239.322 654.452 234.471L641.489 166.891C639.829 158.248 633.383 151.315 624.883 149.033C618.037 147.202 610.789 148.64 605.209 152.811C604.271 153.512 602.919 153.347 602.218 152.41C596.538 144.798 588.439 139.267 579.174 136.785C565.058 133 548.489 137.414 538.057 147.867L472.008 214.103C471.128 214.99 469.647 214.804 469.01 213.723L433.589 153.734C431.435 150.092 427.121 148.325 423.029 149.42C418.257 150.7 415.281 155.451 416.211 160.301L429.175 227.882C430.834 236.524 437.281 243.457 445.78 245.739C452.627 247.571 459.874 246.133 465.455 241.962C466.392 241.261 467.744 241.425 468.445 242.362C474.126 249.975 482.225 255.505 491.489 257.988C507.215 262.202 521.395 258.145 532.606 246.905ZM479.327 228.397C478.712 229.012 478.59 229.971 479.034 230.715L479.077 230.794C482.697 236.918 488.57 241.382 495.439 243.228C504.825 245.746 514.849 243.049 521.71 236.167L591.322 166.376C591.937 165.76 592.059 164.802 591.615 164.057L591.572 163.979C587.952 157.855 582.079 153.39 575.21 151.544C565.824 149.026 555.8 151.723 548.939 158.606L479.327 228.397ZM631.015 193.419C631.415 195.523 628.582 196.596 627.495 194.75L612.299 169.015C611.855 168.264 611.977 167.313 612.592 166.697L613.493 165.789C615.432 163.843 618.265 163.084 620.92 163.793C623.76 164.551 625.921 166.876 626.479 169.767L631.015 193.419ZM439.642 201.353C439.241 199.25 442.074 198.177 443.161 200.023L458.357 225.757C458.801 226.508 458.679 227.46 458.064 228.075L457.163 228.984C455.224 230.93 452.391 231.688 449.736 230.98C446.896 230.221 444.735 227.896 444.177 225.006L439.642 201.353Z" fill="url(#paint15_linear_59_20311)"/>
<path fill-rule="evenodd" clip-rule="evenodd" d="M532.606 246.905L598.655 180.67C599.535 179.783 601.016 179.969 601.653 181.049L637.074 241.039C639.228 244.68 643.542 246.448 647.634 245.353C652.406 244.072 655.382 239.322 654.452 234.471L641.489 166.891C639.829 158.248 633.383 151.315 624.883 149.033C618.037 147.202 610.789 148.64 605.209 152.811C604.271 153.512 602.919 153.347 602.218 152.41C596.538 144.798 588.439 139.267 579.174 136.785C565.058 133 548.489 137.414 538.057 147.867L472.008 214.103C471.128 214.99 469.647 214.804 469.01 213.723L433.589 153.734C431.435 150.092 427.121 148.325 423.029 149.42C418.257 150.7 415.281 155.451 416.211 160.301L429.175 227.882C430.834 236.524 437.281 243.457 445.78 245.739C452.627 247.571 459.874 246.133 465.455 241.962C466.392 241.261 467.744 241.425 468.445 242.362C474.126 249.975 482.225 255.505 491.489 257.988C507.215 262.202 521.395 258.145 532.606 246.905ZM479.327 228.397C478.712 229.012 478.59 229.971 479.034 230.715L479.077 230.794C482.697 236.918 488.57 241.382 495.439 243.228C504.825 245.746 514.849 243.049 521.71 236.167L591.322 166.376C591.937 165.76 592.059 164.802 591.615 164.057L591.572 163.979C587.952 157.855 582.079 153.39 575.21 151.544C565.824 149.026 555.8 151.723 548.939 158.606L479.327 228.397ZM631.015 193.419C631.415 195.523 628.582 196.596 627.495 194.75L612.299 169.015C611.855 168.264 611.977 167.313 612.592 166.697L613.493 165.789C615.432 163.843 618.265 163.084 620.92 163.793C623.76 164.551 625.921 166.876 626.479 169.767L631.015 193.419ZM439.642 201.353C439.241 199.25 442.074 198.177 443.161 200.023L458.357 225.757C458.801 226.508 458.679 227.46 458.064 228.075L457.163 228.984C455.224 230.93 452.391 231.688 449.736 230.98C446.896 230.221 444.735 227.896 444.177 225.006L439.642 201.353Z" fill="url(#paint16_radial_59_20311)"/>
<defs>
<linearGradient id="paint0_linear_59_20311" x1="615.35" y1="174.35" x2="648.594" y2="157.559" gradientUnits="userSpaceOnUse">
<stop stop-color="#1E130E" stop-opacity="0"/>
<stop offset="1" stop-color="#1E130E"/>
</linearGradient>
<linearGradient id="paint1_linear_59_20311" x1="603.667" y1="184.438" x2="554.597" y2="223.66" gradientUnits="userSpaceOnUse">
<stop stop-color="#1E130E" stop-opacity="0"/>
<stop offset="0.9999" stop-color="#1E130E"/>
<stop offset="1" stop-color="#1E130E" stop-opacity="0"/>
</linearGradient>
<linearGradient id="paint2_linear_59_20311" x1="514.162" y1="244.274" x2="488.672" y2="220.669" gradientUnits="userSpaceOnUse">
<stop stop-color="#1E130E" stop-opacity="0"/>
<stop stop-color="#1E130E"/>
<stop offset="1" stop-color="#1E130E" stop-opacity="0"/>
</linearGradient>
<linearGradient id="paint3_linear_59_20311" x1="455.961" y1="188.143" x2="477.697" y2="208.671" gradientUnits="userSpaceOnUse">
<stop stop-color="#1E130E" stop-opacity="0"/>
<stop stop-color="#1E130E"/>
<stop offset="1" stop-color="#1E130E" stop-opacity="0"/>
</linearGradient>
<linearGradient id="paint4_linear_59_20311" x1="455.961" y1="188.143" x2="396.235" y2="140.74" gradientUnits="userSpaceOnUse">
<stop stop-color="#1E130E" stop-opacity="0"/>
<stop stop-color="#1E130E"/>
<stop offset="1" stop-color="#1E130E"/>
</linearGradient>
<linearGradient id="paint5_linear_59_20311" x1="440.739" y1="196.819" x2="413.231" y2="211.688" gradientUnits="userSpaceOnUse">
<stop stop-color="#1E130E" stop-opacity="0"/>
<stop stop-color="#1E130E"/>
<stop offset="1" stop-color="#1E130E"/>
</linearGradient>
<linearGradient id="paint6_linear_59_20311" x1="498.313" y1="210.779" x2="470.811" y2="183.276" gradientUnits="userSpaceOnUse">
<stop offset="0.0251346" stop-color="#1E130E" stop-opacity="0"/>
<stop offset="0.025245" stop-color="#1E130E"/>
<stop offset="0.418616" stop-color="#1E130E"/>
<stop offset="0.418638" stop-color="#1E130E" stop-opacity="0"/>
</linearGradient>
<linearGradient id="paint7_linear_59_20311" x1="606.328" y1="157.515" x2="592.645" y2="165.804" gradientUnits="userSpaceOnUse">
<stop offset="0.0531734" stop-color="#1E130E" stop-opacity="0"/>
<stop offset="0.0535322" stop-color="#1E130E"/>
<stop offset="0.999637" stop-color="#1E130E"/>
<stop offset="1" stop-color="#1E130E" stop-opacity="0"/>
</linearGradient>
<linearGradient id="paint8_linear_59_20311" x1="614.799" y1="173.134" x2="601.528" y2="180.949" gradientUnits="userSpaceOnUse">
<stop offset="0.316177" stop-color="#1E130E" stop-opacity="0"/>
<stop offset="0.402194" stop-color="#1E130E"/>
<stop offset="0.999637" stop-color="#1E130E"/>
<stop offset="1" stop-color="#1E130E" stop-opacity="0"/>
</linearGradient>
<linearGradient id="paint9_linear_59_20311" x1="669.739" y1="269.593" x2="601.692" y2="183.103" gradientUnits="userSpaceOnUse">
<stop stop-color="#1E130E"/>
<stop offset="0.766133" stop-color="#1E130E"/>
<stop offset="1" stop-color="#1E130E" stop-opacity="0"/>
</linearGradient>
<linearGradient id="paint10_linear_59_20311" x1="669.739" y1="269.593" x2="601.054" y2="174.782" gradientUnits="userSpaceOnUse">
<stop stop-color="#1E130E"/>
<stop offset="0.884925" stop-color="#1E130E" stop-opacity="0"/>
</linearGradient>
<radialGradient id="paint11_radial_59_20311" cx="0" cy="0" r="1" gradientUnits="userSpaceOnUse" gradientTransform="translate(570.545 147.309) rotate(-86.2899) scale(50.0438 50.0434)">
<stop offset="0.329981" stop-color="#1E130E"/>
<stop offset="0.54286" stop-color="#1E130E" stop-opacity="0"/>
</radialGradient>
<radialGradient id="paint12_radial_59_20311" cx="0" cy="0" r="1" gradientUnits="userSpaceOnUse" gradientTransform="translate(587.165 157.8) rotate(-130.321) scale(24.6096)">
<stop stop-color="#1E130E"/>
<stop offset="0.326054" stop-color="#1E130E" stop-opacity="0"/>
</radialGradient>
<radialGradient id="paint13_radial_59_20311" cx="0" cy="0" r="1" gradientUnits="userSpaceOnUse" gradientTransform="translate(590.825 161.945) rotate(-130.527) scale(30.1381)">
<stop stop-color="#1E130E"/>
<stop offset="0.0861727" stop-color="#1E130E" stop-opacity="0"/>
</radialGradient>
<radialGradient id="paint14_radial_59_20311" cx="0" cy="0" r="1" gradientUnits="userSpaceOnUse" gradientTransform="translate(553.59 154.885) rotate(-41.9197) scale(23.7221 23.7221)">
<stop stop-color="#1E130E"/>
<stop offset="0.476786" stop-color="#1E130E" stop-opacity="0"/>
</radialGradient>
<linearGradient id="paint15_linear_59_20311" x1="574.56" y1="194.905" x2="500.861" y2="244.609" gradientUnits="userSpaceOnUse">
<stop offset="0.0673077" stop-color="#1E130E" stop-opacity="0"/>
<stop offset="0.331731" stop-color="#1E130E"/>
<stop offset="0.681046" stop-color="#1E130E"/>
<stop offset="1" stop-color="#1E130E" stop-opacity="0"/>
</linearGradient>
<radialGradient id="paint16_radial_59_20311" cx="0" cy="0" r="1" gradientTransform="matrix(30.4083 29.5228 -83.2433 85.7413 517.489 250.964)" gradientUnits="userSpaceOnUse">
<stop offset="0.223569" stop-color="#1E130E"/>
<stop offset="0.766073" stop-color="#1E130E" stop-opacity="0"/>
</radialGradient>
</defs>
</svg>
